# xmcd CD database file
#
# Track frame offsets:
#	150
#	21800
#	39660
#	54162
#	66985
#	82667
#	95079
#	109260
#	122427
#	136880
#	152860
#	168392
#
# Disc length: 2430 seconds
#
# Revision: 1
# Processed by: cddbd v1.5.2PL0 Copyright (c) Steve Scherf et al.
# Submitted via: CDex 1.50Beta7
#
DISCID=95097c0c
DTITLE=Vander and Vandeir - Natureza
DYEAR=2002
DGENRE=Country
TTITLE0=natureza
TTITLE1=rancho Quatro coqueiros 
TTITLE2=boi Tufão
TTITLE3=eu, ela e a viola
TTITLE4=justiça divina
TTITLE5=morena cabocla
TTITLE6=ninho de saudade
TTITLE7=pescador
TTITLE8=rodeio do destino
TTITLE9=São Paulo está de luto- compositor- Tarcisio Ribeiro 
TTITLE10=homenagem ao vovô
TTITLE11=para sempre te amarei
EXTD=YEAR: 2002
EXTT0=
EXTT1=
EXTT2=
EXTT3=
EXTT4=
EXTT5=
EXTT6=
EXTT7=
EXTT8=
EXTT9=
EXTT10=
EXTT11=
PLAYORDER=
